<svg width="32" height="20" viewBox="0 0 32 20" fill="none" xmlns="http://www.w3.org/2000/svg">
<path d="M30.72 0.0666504H1.28C0.573075 0.0666504 0 0.639726 0 1.34665V17.9867C0 18.6936 0.573075 19.2667 1.28 19.2667H30.72C31.4269 19.2667 32 18.6936 32 17.9867V1.34665C32 0.639726 31.4269 0.0666504 30.72 0.0666504Z" fill="#26337A"/>
<path fill-rule="evenodd" clip-rule="evenodd" d="M13.2769 12.7216L14.2608 6.61786H15.8335L14.8497 12.7216H13.2769Z" fill="white"/>
<path fill-rule="evenodd" clip-rule="evenodd" d="M20.5547 6.76775C20.2437 6.64525 19.7547 6.51166 19.1454 6.51166C17.5905 6.51166 16.4959 7.33996 16.4868 8.52604C16.4769 9.40338 17.2679 9.89266 17.8642 10.1843C18.477 10.4832 18.6829 10.6745 18.6805 10.9417C18.6763 11.3505 18.1913 11.5378 17.7391 11.5378C17.1095 11.5378 16.7749 11.4456 16.2577 11.2177L16.0554 11.1206L15.8354 12.4868C16.2022 12.6568 16.8821 12.8044 17.5877 12.8121C19.2402 12.8121 20.314 11.9938 20.3266 10.7273C20.3322 10.0316 19.9132 9.50424 19.0055 9.06886C18.4559 8.78582 18.1186 8.59833 18.1224 8.31186C18.1228 8.0582 18.4074 7.78661 19.0234 7.78661C19.5379 7.77832 19.9103 7.89712 20.2005 8.02116L20.3417 8.09093L20.5547 6.76775Z" fill="white"/>
<path fill-rule="evenodd" clip-rule="evenodd" d="M22.6485 10.5576C22.7789 10.2068 23.2751 8.85153 23.2751 8.85153C23.2659 8.86766 23.4047 8.49799 23.4841 8.26922L23.5902 8.79564C23.5902 8.79564 23.892 10.2525 23.9542 10.5576H22.6485ZM24.5888 6.62415H23.3734C22.9964 6.62415 22.7142 6.73213 22.549 7.13011L20.2134 12.7238H21.8653C21.8653 12.7238 22.1348 11.9713 22.196 11.8062C22.3761 11.8062 23.9813 11.8093 24.2104 11.8093C24.2575 12.0223 24.4019 12.7238 24.4019 12.7238H25.8617L24.5888 6.62415Z" fill="white"/>
<path fill-rule="evenodd" clip-rule="evenodd" d="M11.9572 6.62305L10.4178 10.7843L10.2529 9.93843C9.96604 8.96382 9.07307 7.90746 8.07422 7.37816L9.48254 12.7163L11.147 12.7153L13.6238 6.62305H11.9572Z" fill="white"/>
<path fill-rule="evenodd" clip-rule="evenodd" d="M8.98876 6.6189H6.45251L6.43164 6.74536C8.40514 7.25096 9.71091 8.47138 10.2529 9.93842L9.70174 7.13387C9.60665 6.74708 9.33032 6.63242 8.98876 6.6189Z" fill="#ED982D"/>
</svg>
