<svg width="32" height="20" viewBox="0 0 32 20" fill="none" xmlns="http://www.w3.org/2000/svg">
<path d="M30.72 0.0666504H1.28C0.573075 0.0666504 0 0.639726 0 1.34665V17.9867C0 18.6936 0.573075 19.2667 1.28 19.2667H30.72C31.4269 19.2667 32 18.6936 32 17.9867V1.34665C32 0.639726 31.4269 0.0666504 30.72 0.0666504Z" fill="#0072CE"/>
<path fill-rule="evenodd" clip-rule="evenodd" d="M27.0104 11.1597H25.8799C25.767 11.1597 25.692 11.1639 25.6288 11.2064C25.5634 11.2483 25.5382 11.3105 25.5382 11.3926C25.5382 11.4902 25.5934 11.5567 25.6738 11.5854C25.7393 11.6081 25.8096 11.6147 25.9129 11.6147L26.2491 11.6237C26.5884 11.632 26.8148 11.6902 26.9529 11.832C26.978 11.8517 26.9931 11.8739 27.0104 11.8961V11.1597ZM27.0104 12.8659C26.8598 13.0856 26.5661 13.197 26.1686 13.197H24.9707V12.642H26.1638C26.2821 12.642 26.365 12.6265 26.4148 12.5779C26.458 12.5379 26.4882 12.4797 26.4882 12.4091C26.4882 12.3337 26.458 12.2739 26.4124 12.238C26.3674 12.1985 26.3019 12.1805 26.1938 12.1805C25.6114 12.1608 24.8847 12.1985 24.8847 11.3795C24.8847 11.0041 25.1238 10.609 25.7747 10.609H27.0104V10.0941H25.8623C25.5159 10.0941 25.2642 10.1768 25.086 10.3054V10.0941H23.3879C23.1163 10.0941 22.7976 10.1612 22.6468 10.3054V10.0941H19.6145V10.3054C19.3731 10.1318 18.9659 10.0941 18.778 10.0941H16.7778V10.3054C16.5869 10.1211 16.1623 10.0941 15.9035 10.0941H13.665L13.1528 10.6468L12.673 10.0941H9.3291V13.7053H12.6101L13.1379 13.1438L13.6351 13.7053L15.6575 13.707V12.8576H15.8563C16.1247 12.8617 16.4412 12.8509 16.7204 12.7306V13.7052H18.3885V12.764H18.469C18.5717 12.764 18.5817 12.7682 18.5817 12.8705V13.7051H23.6492C23.9709 13.7051 24.3072 13.623 24.4934 13.474V13.7051H26.1008C26.4353 13.7051 26.7619 13.6584 27.0104 13.5386V12.8659ZM24.536 11.832C24.6568 11.9566 24.7215 12.114 24.7215 12.3803C24.7215 12.9371 24.3726 13.197 23.747 13.197H22.5388V12.642H23.7422C23.8598 12.642 23.9433 12.6265 23.9956 12.5779C24.0382 12.5379 24.0688 12.4797 24.0688 12.4091C24.0688 12.3337 24.0357 12.2739 23.9931 12.238C23.9457 12.1985 23.8802 12.1805 23.7722 12.1805C23.1921 12.1608 22.4656 12.1985 22.4656 11.3795C22.4656 11.0041 22.7022 10.609 23.3525 10.609H24.5961V11.1598H23.4582C23.3454 11.1598 23.272 11.164 23.2096 11.2066C23.1417 11.2485 23.1165 11.3107 23.1165 11.3928C23.1165 11.4904 23.1742 11.5568 23.2522 11.5855C23.3177 11.6082 23.388 11.6149 23.4936 11.6149L23.8276 11.6239C24.1643 11.632 24.3955 11.6901 24.536 11.832ZM18.9385 11.6722C18.8555 11.7212 18.7529 11.7255 18.6322 11.7255H17.8786V11.1442H18.6424C18.7529 11.1442 18.8634 11.1465 18.9385 11.1909C19.0189 11.2329 19.0669 11.313 19.0669 11.4237C19.0669 11.5345 19.0189 11.6237 18.9385 11.6722ZM19.3131 11.9942C19.4512 12.045 19.5641 12.1361 19.617 12.2115C19.7046 12.3379 19.7173 12.4558 19.7198 12.6839V13.197H19.097V12.8732C19.097 12.7175 19.112 12.4869 18.9967 12.3666C18.9061 12.2739 18.7679 12.2517 18.5416 12.2517H17.8787V13.197H17.2553V10.6089H18.6875C19.0016 10.6089 19.2303 10.6227 19.4339 10.731C19.6297 10.849 19.7528 11.0105 19.7528 11.3057C19.7527 11.7188 19.4764 11.9296 19.3131 11.9942ZM20.0967 10.6089H22.1671V11.1441H20.7145V11.6146H22.1317V12.1427H20.7145V12.6576L22.1671 12.6599V13.197H20.0967V10.6089ZM15.9114 11.8033H15.1098V11.1442H15.9186C16.1426 11.1442 16.2981 11.2352 16.2981 11.4615C16.2981 11.6853 16.1498 11.8033 15.9114 11.8033ZM14.4919 12.9616L13.5395 11.9074L14.4919 10.8867V12.9616ZM12.0324 12.6576H10.5072V12.1427H11.8691V11.6146H10.5072V11.1441H12.0624L12.7409 11.8983L12.0324 12.6576ZM16.9641 11.4615C16.9641 12.1805 16.426 12.3289 15.8838 12.3289H15.1098V13.197H13.9041L13.1402 12.3402L12.3464 13.197H9.88926V10.6089H12.3842L13.1474 11.4572L13.9365 10.6089H15.9186C16.4109 10.6089 16.9641 10.7448 16.9641 11.4615Z" fill="white"/>
<path fill-rule="evenodd" clip-rule="evenodd" d="M6.92938 7.6264L6.5048 6.59491L6.08265 7.6264H6.92938ZM16.2829 7.21566C16.1976 7.26725 16.0968 7.26896 15.976 7.26896H15.2224V6.69426H15.9863C16.0944 6.69426 16.2072 6.6991 16.2804 6.74093C16.3609 6.77862 16.4107 6.85885 16.4107 6.96967C16.4107 7.08275 16.3633 7.17375 16.2829 7.21566ZM21.6588 7.6264L21.2296 6.59491L20.8026 7.6264H21.6588ZM11.6377 8.74288H11.0017L10.9994 6.71642L10.0999 8.74288H9.55523L8.65338 6.71463V8.74288H7.39169L7.15334 8.16576H5.86175L5.62096 8.74288H4.94722L6.05807 6.15545H6.97972L8.03475 8.60521V6.15545H9.0472L9.85903 7.91071L10.6048 6.15545H11.6376V8.74288H11.6377ZM14.1722 8.74288H12.1V6.15545H14.1722V6.69426H12.7203V7.16064H14.1374V7.69102H12.7203V8.20774H14.1722V8.74288ZM17.0941 6.85229C17.0941 7.26483 16.8179 7.47796 16.6569 7.54196C16.7927 7.59347 16.9086 7.68446 16.9638 7.75985C17.0514 7.88855 17.0665 8.0035 17.0665 8.23459V8.74288H16.4408L16.4385 8.41658C16.4385 8.26089 16.4534 8.03698 16.3405 7.91251C16.2499 7.82151 16.1117 7.80176 15.8884 7.80176H15.2225V8.74288H14.6022V6.15545H16.029C16.346 6.15545 16.5796 6.1638 16.7802 6.27938C16.9764 6.39496 17.0941 6.56369 17.0941 6.85229ZM18.0868 8.74288H17.4538V6.15545H18.0868V8.74288ZM25.4299 8.74288H24.5508L23.375 6.80086V8.74288H22.1117L21.8703 8.16576H20.5817L20.3475 8.74288H19.6216C19.3201 8.74288 18.9383 8.67639 18.7221 8.4567C18.5041 8.23701 18.3907 7.93943 18.3907 7.46891C18.3907 7.08517 18.4584 6.73437 18.7251 6.45716C18.9256 6.25066 19.2397 6.15545 19.6671 6.15545H20.2677V6.70987H19.6797C19.4534 6.70987 19.3255 6.74342 19.2024 6.86314C19.0966 6.97209 19.0241 7.17804 19.0241 7.44924C19.0241 7.72645 19.0793 7.92632 19.1946 8.05688C19.2901 8.15928 19.4637 8.19034 19.627 8.19034H19.9056L20.7799 6.15553H21.7093L22.7596 8.60287V6.15553H23.7041L24.7945 7.95754V6.15553H25.4299V8.74288ZM4.94002 9.2511H5.99991L6.23889 8.67639H6.77392L7.01228 9.2511H9.09769V8.81172L9.28384 9.25297H10.3664L10.5526 8.80516V9.2511H15.7352L15.7328 8.30771H15.8331C15.9033 8.31013 15.9238 8.31661 15.9238 8.43219V9.2511H18.6043V9.03148C18.8205 9.14699 19.1568 9.2511 19.5993 9.2511H20.7269L20.9683 8.67639H21.5033L21.7393 9.2511H23.9124V8.70519L24.2415 9.2511H25.9829V5.6424H24.2595V6.06859L24.0182 5.6424H22.2498V6.06859L22.0282 5.6424H19.6395C19.2397 5.6424 18.8882 5.69804 18.6043 5.85311V5.6424H16.9559V5.85311C16.7752 5.69328 16.529 5.6424 16.2553 5.6424H10.2331L9.82905 6.57446L9.41409 5.6424H7.51725V6.06859L7.30888 5.6424H5.69118L4.93994 7.35817V9.2511H4.94002Z" fill="white"/>
</svg>
