<svg width="32" height="20" viewBox="0 0 32 20" fill="none" xmlns="http://www.w3.org/2000/svg">
<mask id="mask0_126_1208" style="mask-type:alpha" maskUnits="userSpaceOnUse" x="0" y="0" width="32" height="20">
<path d="M30.72 0.0666504H1.28C0.573075 0.0666504 0 0.639726 0 1.34665V17.9867C0 18.6936 0.573075 19.2667 1.28 19.2667H30.72C31.4269 19.2667 32 18.6936 32 17.9867V1.34665C32 0.639726 31.4269 0.0666504 30.72 0.0666504Z" fill="white"/>
</mask>
<g mask="url(#mask0_126_1208)">
<path d="M30.72 0.0666504H1.28C0.573075 0.0666504 0 0.639726 0 1.34665V17.9867C0 18.6936 0.573075 19.2667 1.28 19.2667H30.72C31.4269 19.2667 32 18.6936 32 17.9867V1.34665C32 0.639726 31.4269 0.0666504 30.72 0.0666504Z" fill="white" stroke="#E6772F"/>
</g>
<mask id="mask1_126_1208" style="mask-type:alpha" maskUnits="userSpaceOnUse" x="7" y="10" width="25" height="10">
<path d="M7.7168 19.2667H30.72C31.4268 19.2667 31.9999 18.6948 31.9999 17.9884V10.85C31.9999 10.85 23.4237 16.6644 7.7168 19.2667Z" fill="white"/>
</mask>
<g mask="url(#mask1_126_1208)">
<path d="M7.7168 19.2667H30.72C31.4268 19.2667 31.9999 18.6948 31.9999 17.9884V10.85C31.9999 10.85 23.4237 16.6644 7.7168 19.2667Z" fill="#E7772F"/>
</g>
<path fill-rule="evenodd" clip-rule="evenodd" d="M5.85228 9.60972C5.61205 9.81512 5.30624 9.90495 4.81721 9.90495H4.61428V7.45374H4.81721C5.30624 7.45374 5.60032 7.53752 5.85228 7.75315C6.11236 7.97597 6.26865 8.3197 6.26865 8.67524C6.26865 9.03251 6.11236 9.38848 5.85228 9.60972ZM4.96868 6.82587H3.8584V10.5331H4.96191C5.54917 10.5331 5.97307 10.3994 6.34462 10.1043C6.78596 9.75481 7.04785 9.22712 7.04785 8.68042C7.04785 7.58603 6.19344 6.82587 4.96868 6.82587Z" fill="#1A1918"/>
<path fill-rule="evenodd" clip-rule="evenodd" d="M7.39648 6.82587H8.14936V10.5331H7.39648V6.82587Z" fill="#1A1918"/>
<path fill-rule="evenodd" clip-rule="evenodd" d="M9.99838 8.24671C9.54395 8.08722 9.41113 7.98099 9.41113 7.78062C9.41113 7.54772 9.6485 7.37111 9.97492 7.37111C10.2012 7.37111 10.3875 7.45776 10.5861 7.6695L10.9792 7.17606C10.6544 6.90257 10.2657 6.7641 9.84194 6.7641C9.15631 6.7641 8.63373 7.22054 8.63373 7.82409C8.63373 8.33653 8.87667 8.59649 9.58562 8.84335C9.88196 8.94195 10.0325 9.00932 10.1088 9.05495C10.2598 9.14837 10.335 9.28223 10.335 9.43697C10.335 9.73853 10.0853 9.9602 9.74778 9.9602C9.38841 9.9602 9.09764 9.78805 8.9236 9.46475L8.43652 9.91616C8.78476 10.4044 9.20219 10.6226 9.77726 10.6226C10.5616 10.6226 11.1142 10.1201 11.1142 9.40444C11.1142 8.81471 10.8579 8.54741 9.99838 8.24671Z" fill="#1A1918"/>
<path fill-rule="evenodd" clip-rule="evenodd" d="M11.3516 8.6804C11.3516 9.77062 12.2458 10.6154 13.397 10.6154C13.7217 10.6154 13.9999 10.5541 14.3426 10.3994V9.54736C14.0398 9.83856 13.774 9.95343 13.4301 9.95343C12.6694 9.95343 12.1306 9.42674 12.1306 8.67522C12.1306 7.96515 12.6869 7.40262 13.397 7.40262C13.7553 7.40262 14.0291 7.52411 14.3426 7.81962V6.96863C14.0115 6.80842 13.7399 6.74207 13.4125 6.74207C12.2679 6.74207 11.3516 7.60342 11.3516 8.6804Z" fill="#1A1918"/>
<path fill-rule="evenodd" clip-rule="evenodd" d="M20.4638 9.31478L19.4307 6.82587H18.6069L20.2493 10.6267H20.6544L22.3286 6.82587H21.5113L20.4638 9.31478Z" fill="#1A1918"/>
<path fill-rule="evenodd" clip-rule="evenodd" d="M22.6714 10.5331H24.8139V9.90495H23.4273V8.90426H24.7612V8.27623H23.4273V7.45374H24.8139V6.82587H22.6714V10.5331Z" fill="#1A1918"/>
<path fill-rule="evenodd" clip-rule="evenodd" d="M26.2894 8.53058H26.07V7.40927H26.3017C26.7737 7.40927 27.0266 7.59884 27.0266 7.95999C27.0266 8.33108 26.7737 8.53058 26.2894 8.53058ZM27.8046 7.91969C27.8046 7.22545 27.307 6.82587 26.4347 6.82587H25.3125V10.5331H26.07V9.04258H26.1683L27.2121 10.5331H28.1415L26.9226 8.97061C27.4923 8.8592 27.8046 8.48697 27.8046 7.91969Z" fill="#1A1918"/>
<path fill-rule="evenodd" clip-rule="evenodd" d="M18.7134 8.68901C18.7134 9.75634 17.8096 10.6214 16.6938 10.6214C15.5782 10.6214 14.6743 9.75634 14.6743 8.68901C14.6743 7.62153 15.5782 6.75629 16.6938 6.75629C17.8096 6.75629 18.7134 7.62153 18.7134 8.68901Z" fill="#E7772F"/>
</svg>
