<?xml version="1.0" encoding="UTF-8" standalone="no"?>
<svg width="17px" height="15px" viewBox="0 0 17 15" version="1.1" xmlns="http://www.w3.org/2000/svg" xmlns:xlink="http://www.w3.org/1999/xlink" xmlns:sketch="http://www.bohemiancoding.com/sketch/ns">
    <!-- Generator: Sketch 3.3.3 (12081) - http://www.bohemiancoding.com/sketch -->
    <title>Shape</title>
    <desc>Created with Sketch.</desc>
    <defs></defs>
    <g id="UI-Kit" stroke="none" stroke-width="1" fill="none" fill-rule="evenodd" sketch:type="MSPage">
        <g id="Buttons-&amp;-Links" sketch:type="MSArtboardGroup" transform="translate(-288.000000, -2591.000000)" fill="#FFFFFF">
            <path d="M296.632,2594.705 C296.632,2596.941 294.538,2597.218 294.538,2598.169 C294.538,2599.12 297.315,2599.882 297.315,2602.241 C297.315,2606.18 292.442,2605.958 292.442,2605.958 C292.442,2605.958 288.231,2606.11 288.231,2602.939 C288.231,2599.766 293.01,2599.894 293.256,2599.894 C293.195,2599.168 292.709,2599.288 292.709,2598.93 L292.709,2598.041 C292.709,2598.041 289.094,2598.447 289.094,2594.946 C289.094,2591.443 293.231,2591.342 293.231,2591.342 L297.315,2591.342 C297.315,2591.965 295.45,2591.745 295.45,2592.078 C296.507,2592.555 296.632,2593.364 296.632,2594.705 L296.632,2594.705 Z M304.979,2595.022 L302.135,2595.022 L302.135,2597.864 L301.3,2597.864 L301.3,2595.022 L298.458,2595.022 L298.458,2594.186 L301.3,2594.186 L301.3,2591.341 L302.136,2591.341 L302.136,2594.186 L304.98,2594.186 L304.98,2595.022 L304.979,2595.022 Z M292.794602,2600.5069 C291.108498,2600.62131 289.809293,2601.71107 289.892747,2602.94093 C289.9762,2604.1708 291.410711,2605.07505 293.096815,2604.96064 C294.782919,2604.84622 296.082124,2603.75647 295.998671,2602.52661 C295.915217,2601.29674 294.480707,2600.39249 292.794602,2600.5069 Z M294.631128,2594.17322 C294.249268,2592.76729 293.125735,2591.84863 292.121648,2592.12135 C291.117562,2592.39407 290.613148,2593.75488 290.995008,2595.16082 C291.376869,2596.56675 292.500401,2597.48541 293.504488,2597.21269 C294.508575,2596.93997 295.012989,2595.57916 294.631128,2594.17322 Z" id="Shape" sketch:type="MSShapeGroup"></path>
        </g>
    </g>
</svg>