<svg width="32" height="20" viewBox="0 0 32 20" fill="none" xmlns="http://www.w3.org/2000/svg">
<path d="M30.72 0.0666504H1.28C0.573075 0.0666504 0 0.639726 0 1.34665V17.9867C0 18.6936 0.573075 19.2667 1.28 19.2667H30.72C31.4269 19.2667 32 18.6936 32 17.9867V1.34665C32 0.639726 31.4269 0.0666504 30.72 0.0666504Z" fill="#00457C"/>
<path fill-rule="evenodd" clip-rule="evenodd" d="M25.0962 7.1045L24.4509 11.2107C24.4383 11.2901 24.4997 11.3621 24.5802 11.3621H25.2294C25.3369 11.3621 25.4285 11.2839 25.4452 11.1776L26.0816 7.14525C26.0942 7.06577 26.0327 6.99379 25.952 6.99379H25.2258C25.1611 6.99379 25.1062 7.04063 25.0962 7.1045Z" fill="white"/>
<path fill-rule="evenodd" clip-rule="evenodd" d="M17.0033 8.44843H16.2464C16.174 8.44843 16.1063 8.48432 16.0658 8.54434L15.0216 10.082L14.5792 8.60435C14.5514 8.5119 14.4662 8.44843 14.3697 8.44843H13.6258C13.536 8.44843 13.4727 8.53683 13.5017 8.62179L14.3351 11.0682L13.5512 12.1742C13.4898 12.261 13.5518 12.381 13.6583 12.381H14.4143C14.4859 12.381 14.553 12.346 14.594 12.2872L17.111 8.65423C17.1712 8.56725 17.1091 8.44843 17.0033 8.44843Z" fill="white"/>
<path fill-rule="evenodd" clip-rule="evenodd" d="M23.1592 9.91413C23.0864 10.3444 22.745 10.6333 22.3093 10.6333C22.0909 10.6333 21.9159 10.5629 21.8036 10.4299C21.6921 10.2981 21.6503 10.1102 21.6856 9.90116C21.7533 9.47456 22.1004 9.17651 22.5295 9.17651C22.7434 9.17651 22.9169 9.24748 23.0315 9.3817C23.1468 9.51694 23.1923 9.7059 23.1592 9.91413ZM24.2087 8.44843H23.4556C23.3912 8.44843 23.3362 8.49526 23.3261 8.55913L23.293 8.76959L23.2403 8.69335C23.0773 8.45674 22.7138 8.37746 22.3508 8.37746C21.5189 8.37746 20.8083 9.00803 20.67 9.89223C20.598 10.3334 20.7002 10.755 20.9504 11.0491C21.1801 11.3194 21.508 11.4319 21.8987 11.4319C22.5694 11.4319 22.9413 11.0013 22.9413 11.0013L22.9076 11.2105C22.895 11.29 22.9565 11.362 23.0372 11.362H23.7152C23.8228 11.362 23.9143 11.2839 23.9311 11.1777L24.3382 8.59988C24.3508 8.5204 24.2892 8.44843 24.2087 8.44843Z" fill="white"/>
<path fill-rule="evenodd" clip-rule="evenodd" d="M11.9429 9.91413C11.8701 10.3444 11.5287 10.6333 11.093 10.6333C10.8746 10.6333 10.6996 10.5629 10.5873 10.4299C10.476 10.2981 10.434 10.1102 10.4693 9.90116C10.537 9.47456 10.8841 9.17651 11.3132 9.17651C11.5271 9.17651 11.7006 9.24748 11.8152 9.3817C11.9305 9.51694 11.976 9.7059 11.9429 9.91413ZM12.9924 8.44843H12.2393C12.1749 8.44843 12.1199 8.49526 12.1098 8.55913L12.0767 8.76959L12.0242 8.69335C11.861 8.45674 11.4975 8.37746 11.1345 8.37746C10.3026 8.37746 9.59198 9.00803 9.4537 9.89223C9.38172 10.3334 9.48391 10.755 9.73411 11.0491C9.96383 11.3194 10.2917 11.4319 10.6824 11.4319C11.3531 11.4319 11.7249 11.0013 11.7249 11.0013L11.6913 11.2105C11.6787 11.29 11.7402 11.362 11.8208 11.362H12.4989C12.6065 11.362 12.698 11.2839 12.7148 11.1777L13.1219 8.59988C13.1345 8.5204 13.0728 8.44843 12.9924 8.44843Z" fill="white"/>
<path fill-rule="evenodd" clip-rule="evenodd" d="M8.47364 8.46654C8.38767 9.031 7.95662 9.031 7.53955 9.031H7.30233L7.46879 7.97709C7.47872 7.91342 7.53367 7.86659 7.59815 7.86659H7.70703C7.99088 7.86659 8.25892 7.86659 8.3972 8.02818C8.47992 8.1249 8.50486 8.26845 8.47364 8.46654ZM8.29217 6.99373H6.71962C6.61195 6.99373 6.52051 7.072 6.50368 7.17824L5.86785 11.2106C5.85528 11.2901 5.91671 11.3621 5.9972 11.3621H6.7482C6.85566 11.3621 6.9471 11.2838 6.96393 11.1778L7.13567 10.0898C7.15229 9.98354 7.24394 9.90528 7.3514 9.90528H7.84895C8.88482 9.90528 9.48274 9.40407 9.63886 8.41037C9.70922 7.97607 9.6417 7.63464 9.43834 7.39559C9.2147 7.13282 8.81832 6.99373 8.29217 6.99373Z" fill="white"/>
<path fill-rule="evenodd" clip-rule="evenodd" d="M19.6899 8.46654C19.604 9.031 19.1729 9.031 18.7559 9.031H18.5186L18.6851 7.97709C18.695 7.91342 18.75 7.86659 18.8145 7.86659H18.9233C19.2072 7.86659 19.4752 7.86659 19.6135 8.02818C19.6962 8.1249 19.7212 8.26845 19.6899 8.46654ZM19.5085 6.99373H17.9359C17.8283 6.99373 17.7368 7.072 17.72 7.17824L17.0842 11.2106C17.0716 11.2901 17.1332 11.3621 17.2135 11.3621H18.0205C18.0957 11.3621 18.1598 11.3073 18.1715 11.2331L18.352 10.0898C18.3686 9.98354 18.4602 9.90528 18.5677 9.90528H19.0653C20.1011 9.90528 20.699 9.40407 20.8552 8.41037C20.9255 7.97607 20.858 7.63464 20.6546 7.39559C20.431 7.13282 20.0346 6.99373 19.5085 6.99373Z" fill="white"/>
</svg>
