<?xml version="1.0" encoding="UTF-8" standalone="no"?>
<svg width="18px" height="15px" viewBox="0 0 18 15" version="1.1" xmlns="http://www.w3.org/2000/svg" xmlns:xlink="http://www.w3.org/1999/xlink" xmlns:sketch="http://www.bohemiancoding.com/sketch/ns">
    <!-- Generator: Sketch 3.3.3 (12081) - http://www.bohemiancoding.com/sketch -->
    <title>Fill 3</title>
    <desc>Created with Sketch.</desc>
    <defs></defs>
    <g id="UI-Kit" stroke="none" stroke-width="1" fill="none" fill-rule="evenodd" sketch:type="MSPage">
        <g id="Buttons-&amp;-Links" sketch:type="MSArtboardGroup" transform="translate(-170.000000, -2591.000000)" fill="#FFFFFF">
            <path d="M188,2593.15731 C187.33778,2593.43836 186.62597,2593.62838 185.87906,2593.71382 C186.64136,2593.27635 187.22699,2592.58374 187.50275,2591.7584 C186.78914,2592.16349 185.99885,2592.45764 185.15762,2592.61604 C184.48406,2591.92921 183.5243,2591.5 182.46212,2591.5 C180.42272,2591.5 178.76915,2593.08237 178.76915,2595.03426 C178.76915,2595.31118 178.80182,2595.58095 178.86482,2595.8397 C175.79564,2595.69224 173.07449,2594.28524 171.25316,2592.14695 C170.93528,2592.66893 170.75312,2593.276 170.75312,2593.92373 C170.75312,2595.14994 171.40508,2596.2317 172.39598,2596.86547 C171.79064,2596.84713 171.22121,2596.68812 170.72333,2596.42343 C170.72297,2596.43816 170.72297,2596.45298 170.72297,2596.46788 C170.72297,2598.18031 171.99593,2599.60868 173.68532,2599.93349 C173.37545,2600.0142 173.0492,2600.05744 172.71242,2600.05744 C172.47446,2600.05744 172.24307,2600.03521 172.01753,2599.99404 C172.48751,2601.39803 173.85128,2602.42001 175.46732,2602.44844 C174.20345,2603.39643 172.61117,2603.96138 170.88092,2603.96138 C170.58284,2603.96138 170.2889,2603.94467 170,2603.91194 C171.63431,2604.9148 173.57543,2605.5 175.66091,2605.5 C182.45348,2605.5 186.16805,2600.11446 186.16805,2595.444 C186.16805,2595.29085 186.16436,2595.1384 186.15725,2594.9868 C186.87887,2594.48851 187.50491,2593.86602 188,2593.15731" id="Fill-3" sketch:type="MSShapeGroup"></path>
        </g>
    </g>
</svg>